<?xml version="1.0" encoding="UTF-8" standalone="no"?>
<!-- Generator: Adobe Illustrator 16.0.0, SVG Export Plug-In . SVG Version: 6.00 Build 0)  -->

<svg
   xmlns:dc="http://purl.org/dc/elements/1.1/"
   xmlns:cc="http://creativecommons.org/ns#"
   xmlns:rdf="http://www.w3.org/1999/02/22-rdf-syntax-ns#"
   xmlns:svg="http://www.w3.org/2000/svg"
   xmlns="http://www.w3.org/2000/svg"
   xmlns:sodipodi="http://sodipodi.sourceforge.net/DTD/sodipodi-0.dtd"
   xmlns:inkscape="http://www.inkscape.org/namespaces/inkscape"
   version="1.1"
   id="Layer_1"
   x="0px"
   y="0px"
   width="499.06973"
   height="499.61365"
   viewBox="0 0 499.06973 499.61366"
   enable-background="new 0 0 500 500"
   xml:space="preserve"
   sodipodi:docname="logo.svg"
   inkscape:version="0.92.4 5da689c313, 2019-01-14"><metadata
   id="metadata950"><rdf:RDF><cc:Work
       rdf:about=""><dc:format>image/svg+xml</dc:format><dc:type
         rdf:resource="http://purl.org/dc/dcmitype/StillImage" /><dc:title></dc:title></cc:Work></rdf:RDF></metadata><defs
   id="defs948">
	
	
	
	
	
</defs><sodipodi:namedview
   pagecolor="#ffffff"
   bordercolor="#666666"
   borderopacity="1"
   objecttolerance="10"
   gridtolerance="10"
   guidetolerance="10"
   inkscape:pageopacity="0"
   inkscape:pageshadow="2"
   inkscape:window-width="2556"
   inkscape:window-height="1396"
   id="namedview946"
   showgrid="false"
   fit-margin-top="100"
   fit-margin-left="50"
   fit-margin-right="50"
   fit-margin-bottom="100"
   inkscape:zoom="2.0817224"
   inkscape:cx="318.99214"
   inkscape:cy="251.30164"
   inkscape:window-x="0"
   inkscape:window-y="20"
   inkscape:window-maximized="0"
   inkscape:current-layer="Layer_1" />




<g
   id="g981"
   transform="translate(249.5,-100.38636)"><g
     transform="translate(-255.089,95.872391)"
     id="g968"><path
       style="fill:#2c3e50;stroke:#2c3e50;stroke-width:6;stroke-miterlimit:10"
       inkscape:connector-curvature="0"
       stroke-miterlimit="10"
       d="m 319.583,230.41 c -18.585,-2.145 -33.013,-20.404 -52.58,-52.037 4.173,-6.175 7.928,-11.875 11.684,-18.05 10.301,-14.886 22.864,-31.045 40.896,-32.636 v -19.853 c -27.468,2.511 -44.452,25.745 -62.176,55.339 -4.59,-6.65 -8.762,-13.775 -13.351,-19.95 -13.11,-18.544 -27.739,-34.063 -49.639,-35.505 v 20.533 c 20.806,4.404 36.495,28.797 50.474,52.022 -12.396,18.209 -28.243,47.741 -50.474,50.172 v 20.313 c 13.734,-1.376 24.197,-7.622 33.367,-16.809 10.848,-10.925 19.61,-25.65 27.955,-38.476 20.314,32.842 38.259,54.415 63.844,55.522 z"
       id="path925" /><path
       style="fill:#3b97d3;stroke:#3b97d3;stroke-width:6;stroke-miterlimit:10"
       inkscape:connector-curvature="0"
       stroke-miterlimit="10"
       d="m 178.25,228.911 c -21.921,-5.776 -34.288,-25.533 -34.288,-48.638 0,-31.032 16.071,-47.354 34.288,-51.591 v -19.819 c -29.228,5.375 -56.613,28.19 -56.613,70.936 0,35.972 24.327,64.983 56.613,70.35 z"
       id="path927" /><path
       style="fill:#3b97d3;stroke:#3b97d3;stroke-width:6;stroke-miterlimit:10"
       inkscape:connector-curvature="0"
       stroke-miterlimit="10"
       d="m 335.75,108.7 v 21.04 c 17.604,5.869 30.465,23.366 30.465,50.059 0,20.657 -9.975,42.3 -30.465,48.835 v 20.719 c 29.68,-6.705 52.791,-33.057 52.791,-70.98 v -0.475 c 0,-36.274 -22.479,-63.54 -52.791,-69.198 z"
       id="path929" /></g><g
     transform="translate(-263.641,80.156)"
     id="g963"><path
       style="fill:#35495e"
       inkscape:connector-curvature="0"
       id="path913"
       d="m 192.295,303.42 c 0,6.721 -4.872,11.593 -11.256,11.593 -6.384,0 -11.256,-4.872 -11.256,-11.593 0,-6.887 4.872,-11.76 11.256,-11.76 6.384,0 11.256,4.873 11.256,11.76 z m -20.832,114.912 v -89.375 h 19.152 v 89.375 z" /><path
       style="fill:#35495e"
       inkscape:connector-curvature="0"
       id="path915"
       d="M 220.015,418.332 V 293.677 h 19.32 v 124.655 z" /><path
       style="fill:#35495e"
       inkscape:connector-curvature="0"
       id="path917"
       d="m 283.35,408.588 c 0,6.553 -4.535,11.256 -10.584,11.256 -6.047,0 -10.584,-4.703 -10.584,-11.256 0,-6.384 4.537,-10.92 10.584,-10.92 6.048,0 10.584,4.536 10.584,10.92 z" /><path
       style="fill:#35495e"
       inkscape:connector-curvature="0"
       id="path919"
       d="m 363.315,337.188 -7.056,14.28 c -7.896,-4.873 -17.808,-7.896 -25.703,-7.896 -7.561,0 -13.104,2.52 -13.104,8.904 0,16.464 47.544,7.56 47.376,39.983 0,18.312 -16.297,26.544 -34.271,26.544 -13.104,0 -27.049,-4.367 -35.953,-12.432 l 6.889,-13.776 c 7.729,6.888 20.16,11.089 29.904,11.089 8.231,0 14.615,-2.856 14.615,-9.576 0,-18.313 -47.039,-8.064 -46.871,-40.32 0,-18.145 15.791,-25.872 32.928,-25.872 11.255,0 23.183,3.361 31.246,9.072 z" /><path
       style="fill:#35495e"
       inkscape:connector-curvature="0"
       id="path921"
       d="m 462.938,381.036 h -67.535 c 3.023,13.776 13.607,22.344 27.72,22.344 9.744,0 18.647,-3.696 25.2,-10.415 l 10.247,10.92 c -8.735,9.575 -21.504,15.119 -36.959,15.119 -27.553,0 -45.696,-18.313 -45.696,-45.191 0,-27.049 18.648,-45.359 45.192,-45.528 31.414,-0.001 44.183,20.495 41.831,52.751 z m -16.8,-14.112 c -0.672,-14.447 -10.248,-23.184 -24.863,-23.184 -14.112,0 -24.024,8.904 -26.208,23.184 z" /><path
       style="fill:#35495e;stroke:#35495e;stroke-width:6;stroke-miterlimit:10"
       inkscape:connector-curvature="0"
       stroke-miterlimit="10"
       d="m 147.667,399.945 c -11.957,-1.707 -21.239,-16.241 -33.828,-41.421 2.685,-4.915 5.101,-9.452 7.517,-14.368 6.627,-11.848 14.71,-24.711 26.312,-25.978 v -15.803 c -17.672,1.999 -28.599,20.493 -40.002,44.05 -2.953,-5.293 -5.637,-10.964 -8.589,-15.88 C 90.642,315.784 81.23,303.431 67.141,302.283 v 16.344 c 13.386,3.505 23.48,22.922 32.473,41.409 -7.975,14.494 -18.17,38.002 -32.473,39.937 v 16.169 c 8.836,-1.096 15.568,-6.067 21.467,-13.38 6.979,-8.696 12.617,-20.417 17.985,-30.627 13.069,26.143 24.614,43.313 41.075,44.196 v -16.386 z"
       id="path931" /></g></g>
<g
   id="g933"
   transform="translate(249.5,-100.38636)">
</g>
<g
   id="g935"
   transform="translate(249.5,-100.38636)">
</g>
<g
   id="g937"
   transform="translate(249.5,-100.38636)">
</g>
<g
   id="g939"
   transform="translate(249.5,-100.38636)">
</g>
<g
   id="g941"
   transform="translate(249.5,-100.38636)">
</g>
<g
   id="g943"
   transform="translate(249.5,-100.38636)">
</g>
</svg>