<?xml version="1.0" encoding="utf-8"?>
<!-- Generator: Adobe Illustrator 16.0.0, SVG Export Plug-In . SVG Version: 6.00 Build 0)  -->
<svg version="1.2" baseProfile="tiny" id="Layer_1" xmlns="http://www.w3.org/2000/svg" xmlns:xlink="http://www.w3.org/1999/xlink"
	 x="0px" y="0px" width="403.833px" height="320.5px" viewBox="0 0 403.833 320.5" xml:space="preserve">
<g>
	<path fill="#DDDDDD" d="M131.155,201.701c0,6.722-4.872,11.594-11.256,11.594c-6.385,0-11.256-4.872-11.256-11.594
		c0-6.887,4.871-11.76,11.256-11.76C126.282,189.941,131.155,194.814,131.155,201.701z M110.323,316.613v-89.375h19.151v89.375
		H110.323z"/>
	<path fill="#DDDDDD" d="M158.874,316.613V191.959h19.32v124.654H158.874z"/>
	<path fill="#DDDDDD" d="M222.209,306.869c0,6.554-4.535,11.257-10.584,11.257c-6.047,0-10.584-4.703-10.584-11.257
		c0-6.384,4.537-10.92,10.584-10.92C217.673,295.949,222.209,300.485,222.209,306.869z"/>
	<path fill="#DDDDDD" d="M302.174,235.469l-7.056,14.279c-7.896-4.872-17.809-7.896-25.703-7.896c-7.562,0-13.104,2.52-13.104,8.904
		c0,16.464,47.544,7.56,47.376,39.982c0,18.313-16.297,26.544-34.271,26.544c-13.104,0-27.049-4.366-35.953-12.432l6.889-13.776
		c7.729,6.889,20.16,11.089,29.904,11.089c8.231,0,14.615-2.855,14.615-9.575c0-18.313-47.039-8.064-46.871-40.32
		c0-18.146,15.791-25.872,32.928-25.872C282.183,226.397,294.112,229.759,302.174,235.469z"/>
	<path fill="#DDDDDD" d="M401.797,279.317h-67.535c3.023,13.776,13.607,22.344,27.72,22.344c9.744,0,18.647-3.695,25.2-10.415
		l10.247,10.921c-8.734,9.574-21.504,15.118-36.959,15.118c-27.553,0-45.696-18.313-45.696-45.19
		c0-27.049,18.648-45.359,45.192-45.528C391.38,226.565,404.149,247.061,401.797,279.317z M384.997,265.205
		c-0.672-14.446-10.248-23.184-24.863-23.184c-14.112,0-24.023,8.904-26.208,23.184H384.997z"/>
</g>
<path fill="#DDDDDD" stroke="#DDDDDD" stroke-width="6" stroke-miterlimit="10" d="M258.442,128.691
	c-18.585-2.145-33.013-20.404-52.579-52.037c4.173-6.175,7.928-11.875,11.684-18.05c10.301-14.886,22.864-31.045,40.896-32.636
	V6.115c-27.468,2.512-44.451,25.745-62.176,55.339c-4.59-6.649-8.762-13.774-13.351-19.949C169.805,22.961,155.176,7.441,133.277,6
	v20.532c20.806,4.404,36.495,28.797,50.474,52.022c-12.396,18.209-28.243,47.741-50.474,50.172v20.313
	c13.733-1.376,24.196-7.621,33.367-16.809c10.848-10.925,19.609-25.65,27.954-38.476c20.314,32.842,38.26,54.415,63.844,55.521
	V128.691z"/>
<path fill="#DDDDDD" stroke="#DDDDDD" stroke-width="6" stroke-miterlimit="10" d="M117.11,127.192
	c-21.921-5.775-34.288-25.533-34.288-48.638c0-31.032,16.071-47.354,34.288-51.591V7.144c-29.229,5.375-56.613,28.19-56.613,70.936
	c0,35.973,24.327,64.983,56.613,70.351V127.192z"/>
<path fill="#DDDDDD" stroke="#DDDDDD" stroke-width="6" stroke-miterlimit="10" d="M274.61,6.981v21.04
	c17.604,5.869,30.465,23.366,30.465,50.059c0,20.657-9.976,42.301-30.465,48.835v20.72c29.68-6.705,52.791-33.058,52.791-70.98
	v-0.475C327.4,39.905,304.921,12.639,274.61,6.981z"/>
<path fill="#DDDDDD" stroke="#DDDDDD" stroke-width="6" stroke-miterlimit="10" d="M86.527,298.226
	c-11.957-1.707-21.239-16.241-33.828-41.421c2.685-4.915,5.101-9.452,7.517-14.368c6.627-11.848,14.71-24.711,26.313-25.978v-15.804
	c-17.672,1.999-28.6,20.493-40.002,44.05c-2.953-5.293-5.638-10.964-8.589-15.88C29.501,214.065,20.089,201.713,6,200.564v16.344
	c13.386,3.505,23.48,22.922,32.473,41.409C30.498,272.811,20.303,296.319,6,298.255v16.169c8.836-1.097,15.568-6.067,21.467-13.38
	c6.979-8.696,12.617-20.417,17.985-30.628c13.069,26.144,24.614,43.313,41.075,44.196L86.527,298.226L86.527,298.226z"/>
</svg>
